<svg xmlns="http://www.w3.org/2000/svg" width="30" height="28.674" viewBox="0 0 30 28.674">
  <g id="add_chat_icon" data-name="add chat icon" transform="translate(-354 -98)">
    <path id="chat-left-fill" d="M3.75,0A3.75,3.75,0,0,0,0,3.75V27.737a.938.938,0,0,0,1.6.662l5.349-5.349A1.875,1.875,0,0,1,8.276,22.5H26.25A3.75,3.75,0,0,0,30,18.75v-15A3.75,3.75,0,0,0,26.25,0Z" transform="translate(354 98)" fill="#fff"/>
    <path id="plus" d="M10.5,4a.813.813,0,0,1,.813.813V9.688h4.875a.813.813,0,1,1,0,1.625H11.313v4.875a.813.813,0,0,1-1.625,0V11.313H4.813a.812.812,0,1,1,0-1.625H9.688V4.813A.812.812,0,0,1,10.5,4Z" transform="translate(359 99)"/>
  </g>
</svg>
