<svg xmlns="http://www.w3.org/2000/svg" width="35" height="30" viewBox="0 0 35 30">
  <path id="Path_61" data-name="Path 61" d="M34.97,4.191h0a2.665,2.665,0,0,1-2.793,2.5H26.262a5.024,5.024,0,0,0-.031-4.993h5.946a2.665,2.665,0,0,1,2.793,2.5ZM25.437,25.782A4.49,4.49,0,0,1,20.718,30,4.49,4.49,0,0,1,16,25.782a4.49,4.49,0,0,1,4.719-4.218,4.49,4.49,0,0,1,4.719,4.218ZM35,25.754h0a2.665,2.665,0,0,1-2.793,2.5H26.262a5.023,5.023,0,0,0-.031-4.993H32.2A2.665,2.665,0,0,1,35,25.754Zm-19.823,2.5H2.8A2.665,2.665,0,0,1,0,25.754H0a2.665,2.665,0,0,1,2.793-2.5H15.2a5.024,5.024,0,0,0-.031,4.993ZM8.068,14.95a4.49,4.49,0,0,0,4.719,4.218,4.49,4.49,0,0,0,4.719-4.218,4.49,4.49,0,0,0-4.719-4.218A4.49,4.49,0,0,0,8.068,14.95ZM0,14.923H0a2.665,2.665,0,0,0,2.793,2.5H7.257a5.011,5.011,0,0,1-.649-2.469,5.076,5.076,0,0,1,.68-2.524h-4.5A2.665,2.665,0,0,0,0,14.923Zm18.346,2.5H32.207A2.665,2.665,0,0,0,35,14.923h0a2.665,2.665,0,0,0-2.793-2.5H18.315a5.079,5.079,0,0,1,.68,2.524,5.011,5.011,0,0,1-.649,2.469Zm7.091-13.2a4.49,4.49,0,0,1-4.719,4.218A4.49,4.49,0,0,1,16,4.218,4.49,4.49,0,0,1,20.718,0a4.49,4.49,0,0,1,4.719,4.218ZM15.174,6.687H2.806a2.665,2.665,0,0,1-2.793-2.5h0a2.665,2.665,0,0,1,2.793-2.5H15.2a5.024,5.024,0,0,0-.031,4.993Z" fill="#fff" fill-rule="evenodd"/>
</svg>
