<svg xmlns="http://www.w3.org/2000/svg" width="33.112" height="40.88" viewBox="0 0 33.112 40.88">
  <g id="downtime-arrow-icon" transform="translate(0 40.88) rotate(-90)">
    <path id="Path_136" data-name="Path 136" d="M24.326,0A16.505,16.505,0,0,1,36.033,4.851h0a16.543,16.543,0,0,1,0,23.414h0a16.543,16.543,0,0,1-23.411,0l0,0a16.581,16.581,0,0,1-3.593-5.373,16.815,16.815,0,0,1-.665-1.936c.346.033.7.05,1.055.05a11.052,11.052,0,0,0,1.976-.176c.106.319.223.635.349.945a13.612,13.612,0,1,0,7.376-17.8c-.143.06-.286.123-.426.186a11.059,11.059,0,0,0-1.96-2.312c.413-.213.835-.409,1.264-.589A16.44,16.44,0,0,1,24.326,0ZM8.976.878A8.976,8.976,0,1,1,0,9.854,8.976,8.976,0,0,1,8.976.878ZM8.976,15l4.817-5.955H10.8V5.878H7.149V9.046H4.159L8.976,15Zm13.45-6.314a1.467,1.467,0,1,1,2.934,0v7.725l5.772,3.423a1.472,1.472,0,0,1,.672.9,1.452,1.452,0,0,1-.156,1.108v0h0a1.471,1.471,0,0,1-.9.672,1.452,1.452,0,0,1-1.108-.156h0l-6.457-3.833a1.484,1.484,0,0,1-.539-.516,1.464,1.464,0,0,1-.216-.765V8.686Z" transform="translate(0 0)"/>
  </g>
</svg>
